<?xml version="1.0" standalone="no"?>
<!DOCTYPE svg PUBLIC "-//W3C//DTD SVG 20010904//EN"
 "http://www.w3.org/TR/2001/REC-SVG-20010904/DTD/svg10.dtd">
<svg version="1.0" xmlns="http://www.w3.org/2000/svg"
 width="2135.000000pt" height="2135.000000pt" viewBox="0 0 2135.000000 2135.000000"
 preserveAspectRatio="xMidYMid meet">
<metadata>
Created by potrace 1.11, written by Peter Selinger 2001-2013
</metadata>
<g transform="translate(0.000000,2135.000000) scale(0.100000,-0.100000)"
fill="#000000" stroke="none">
<path d="M0 10680 l0 -10670 10675 0 10675 0 0 10670 0 10670 -10675 0 -10675
0 0 -10670z m7280 7014 c396 -68 735 -295 972 -648 81 -121 123 -208 169 -346
72 -222 69 -121 69 -2119 0 -985 4 -1791 8 -1791 4 0 143 118 307 263 165 144
1169 1023 2230 1952 1062 929 2091 1831 2289 2005 502 441 542 472 717 557
218 106 402 147 659 147 321 0 550 -68 805 -239 469 -314 722 -824 675 -1362
-31 -350 -158 -634 -392 -877 -51 -52 -1240 -1095 -2643 -2317 -1402 -1222
-2550 -2225 -2550 -2230 0 -4 390 -348 866 -766 476 -417 1641 -1438 2590
-2269 1756 -1538 1786 -1566 1898 -1731 280 -417 314 -992 86 -1458 -208 -425
-599 -721 -1065 -806 -114 -21 -451 -18 -565 5 -257 51 -499 165 -696 328 -42
35 -1229 1082 -2638 2328 -1409 1246 -2565 2266 -2571 2268 -6 2 -11 -649 -13
-1840 l-3 -1843 -21 -92 c-69 -289 -193 -513 -398 -718 -126 -126 -232 -205
-369 -275 -188 -95 -387 -146 -621 -156 -455 -21 -838 128 -1155 447 -205 206
-329 435 -392 722 l-23 102 0 5745 c0 5510 1 5749 18 5835 60 298 184 522 417
756 175 176 333 282 530 356 85 32 251 72 347 83 108 12 349 4 463 -16z"/>
</g>
</svg>
