<?xml version="1.0" standalone="no"?>
<!DOCTYPE svg PUBLIC "-//W3C//DTD SVG 20010904//EN"
 "http://www.w3.org/TR/2001/REC-SVG-20010904/DTD/svg10.dtd">
<svg version="1.0" xmlns="http://www.w3.org/2000/svg"
 width="520.000000pt" height="520.000000pt" viewBox="0 0 520.000000 520.000000"
 preserveAspectRatio="xMidYMid meet">
<metadata>
Created by potrace 1.11, written by Peter Selinger 2001-2013
</metadata>
<g transform="translate(0.000000,520.000000) scale(0.100000,-0.100000)"
fill="#000000" stroke="none">
<path d="M338 5189 c-85 -13 -178 -77 -239 -165 -61 -89 -59 -37 -59 -1414 0
-730 -7 -1577 -15 -2025 -8 -423 -15 -867 -15 -985 0 -209 1 -217 25 -269 15
-32 51 -79 90 -117 53 -53 75 -66 131 -83 65 -21 84 -21 1328 -22 823 0 1607
-6 2256 -18 1093 -20 1058 -21 1145 39 57 39 123 114 149 170 21 45 21 45 27
1560 3 833 12 1853 19 2265 l14 750 -26 55 c-31 66 -84 130 -143 170 -91 62
-37 60 -1405 60 -1057 0 -1685 7 -3097 32 -77 2 -161 0 -185 -3z m402 -554
c141 -73 105 -282 -53 -310 -111 -21 -217 94 -187 204 29 107 141 157 240 106z
m3827 -7 c49 -29 73 -76 73 -140 0 -69 -28 -114 -90 -146 -148 -77 -300 88
-215 233 46 80 149 103 232 53z m-1212 -825 c58 -29 96 -65 121 -114 46 -91
30 -209 -38 -279 -14 -14 -217 -194 -452 -400 -404 -354 -426 -375 -409 -391
10 -9 203 -177 428 -374 226 -197 420 -369 433 -384 43 -49 63 -99 63 -161 1
-64 -26 -137 -64 -179 -65 -70 -207 -92 -302 -47 -34 16 -187 147 -485 417
l-435 393 -5 -330 -5 -329 -27 -42 c-47 -72 -138 -123 -218 -123 -88 0 -189
63 -233 144 l-22 41 0 990 0 990 22 41 c51 95 130 144 233 144 76 0 130 -21
178 -70 67 -67 66 -62 72 -422 l5 -326 451 397 c414 364 485 420 549 434 31 7
107 -4 140 -20z m-2588 -2934 c66 -41 92 -141 56 -216 -52 -110 -220 -118
-290 -13 -27 39 -31 125 -9 168 44 85 158 113 243 61z m3797 -2 c50 -28 76
-77 76 -142 0 -87 -55 -147 -149 -161 -37 -6 -53 -3 -90 17 -62 33 -84 67 -89
136 -3 49 0 64 20 93 55 80 150 104 232 57z"/>
</g>
</svg>
