<svg xmlns="http://www.w3.org/2000/svg" viewBox="0 0 16 16"><defs><style>.cls-1{isolation:isolate;}.cls-2{fill:none;}.cls-3{opacity:0.15;mix-blend-mode:multiply;}.cls-4{fill:#ff6900;}.cls-5{fill:#fff;}</style></defs><title>Kano-icon</title><g class="cls-1"><g id="Layer_1" data-name="Layer 1"><rect class="cls-2" width="16" height="16"/><g class="cls-3"><path d="M13.8,1.65H2.2a.8.8,0,0,0-.8.8v11.6a.8.8,0,0,0,.8.8H13.8a.8.8,0,0,0,.8-.8V2.45A.8.8,0,0,0,13.8,1.65ZM3,13.68a.44.44,0,1,1,.44-.44A.44.44,0,0,1,3,13.68ZM3,3.84a.44.44,0,1,1,.44-.44A.44.44,0,0,1,3,3.84Zm9.84,9.84a.44.44,0,1,1,.44-.44A.44.44,0,0,1,12.87,13.68Zm0-9.84a.44.44,0,1,1,.44-.44A.44.44,0,0,1,12.87,3.84Z"/></g><path class="cls-4" d="M13.8,1.4H2.2a.8.8,0,0,0-.8.8V13.8a.8.8,0,0,0,.8.8H13.8a.8.8,0,0,0,.8-.8V2.2A.8.8,0,0,0,13.8,1.4ZM3,13.42A.44.44,0,1,1,3.47,13,.44.44,0,0,1,3,13.42ZM3,3.59a.44.44,0,1,1,.44-.44A.44.44,0,0,1,3,3.59Zm9.84,9.84a.44.44,0,1,1,.44-.44A.44.44,0,0,1,12.87,13.42Zm0-9.84a.44.44,0,1,1,.44-.44A.44.44,0,0,1,12.87,3.59Z"/><path class="cls-4" d="M13.8,1.4H2.2a.8.8,0,0,0-.8.8V13.8a.8.8,0,0,0,.8.8H13.8a.8.8,0,0,0,.8-.8V2.2A.8.8,0,0,0,13.8,1.4ZM3,13.42A.44.44,0,1,1,3.47,13,.44.44,0,0,1,3,13.42ZM3,3.59a.44.44,0,1,1,.44-.44A.44.44,0,0,1,3,3.59Zm9.84,9.84a.44.44,0,1,1,.44-.44A.44.44,0,0,1,12.87,13.42Zm0-9.84a.44.44,0,1,1,.44-.44A.44.44,0,0,1,12.87,3.59Z"/><g class="cls-3"><path d="M10.14,10.27a.62.62,0,0,1,.19.46.66.66,0,0,1-.19.47.64.64,0,0,1-.46.18.67.67,0,0,1-.47-.18L7,9.21v1.51a.62.62,0,0,1-.19.46.67.67,0,0,1-.93,0,.61.61,0,0,1-.19-.46V5.88a.62.62,0,0,1,.19-.45A.65.65,0,0,1,7,5.88V7.39l2.24-2a.65.65,0,0,1,.47-.19.65.65,0,0,1,.46,1.1l-2.25,2Z"/></g><path class="cls-5" d="M10.14,10a.62.62,0,0,1,.19.46.66.66,0,0,1-.19.47.64.64,0,0,1-.46.18.67.67,0,0,1-.47-.18L7,8.91v1.51a.62.62,0,0,1-.19.46.67.67,0,0,1-.93,0,.61.61,0,0,1-.19-.46V5.57a.62.62,0,0,1,.19-.45A.65.65,0,0,1,7,5.57V7.08l2.24-2a.65.65,0,0,1,.47-.19A.65.65,0,0,1,10.14,6L7.89,8Z"/></g></g></svg>