<svg xmlns="http://www.w3.org/2000/svg" viewBox="0 0 43.5 13.1"><defs><style>.cls-1{fill:#d3d6d8;}</style></defs><title>kano-logo-simple</title><g id="Layer_2" data-name="Layer 2"><g id="Layer_4" data-name="Layer 4"><path class="cls-1" d="M9.52,10.75a1.33,1.33,0,0,1,.41,1,1.4,1.4,0,0,1-.41,1,1.36,1.36,0,0,1-1,.39,1.44,1.44,0,0,1-1-.39L2.78,8.5v3.21a1.32,1.32,0,0,1-.4,1,1.35,1.35,0,0,1-1,.4,1.36,1.36,0,0,1-1-.4,1.3,1.3,0,0,1-.41-1V1.39a1.32,1.32,0,0,1,.41-1,1.34,1.34,0,0,1,1-.41,1.33,1.33,0,0,1,1,.41,1.34,1.34,0,0,1,.4,1V4.61L7.55.43a1.4,1.4,0,0,1,1-.41,1.33,1.33,0,0,1,1,.41,1.33,1.33,0,0,1,.41,1,1.33,1.33,0,0,1-.41,1L4.73,6.55Z"/><path class="cls-1" d="M16.21,0a5,5,0,0,1,1.88.36,4.86,4.86,0,0,1,1.58,1,5,5,0,0,1,1.08,1.52,4.47,4.47,0,0,1,.41,1.9v6.9a1.27,1.27,0,0,1-.38.92,1.32,1.32,0,0,1-.93.41,1.37,1.37,0,0,1-1-.36,1.17,1.17,0,0,1-.4-.91V9.35H13.94v2.33a1.26,1.26,0,0,1-.41.93,1.31,1.31,0,0,1-.94.4,1.37,1.37,0,0,1-.94-.37,1.16,1.16,0,0,1-.41-.9V5A5.18,5.18,0,0,1,11.64,3a4.89,4.89,0,0,1,4.57-3ZM18.5,5a2.31,2.31,0,0,0-.17-.89,2.14,2.14,0,0,0-.49-.73,2.48,2.48,0,0,0-.74-.49,2.23,2.23,0,0,0-.91-.18,2.17,2.17,0,0,0-.86.17,2.43,2.43,0,0,0-.72.46,2.15,2.15,0,0,0-.49.7,2.09,2.09,0,0,0-.18.86V6.69H18.5Z"/><path class="cls-1" d="M27.41.06a5,5,0,0,1,1.88.36,4.86,4.86,0,0,1,1.58,1A5,5,0,0,1,32,2.95a4.47,4.47,0,0,1,.41,1.9v6.9a1.28,1.28,0,0,1-.38.92,1.32,1.32,0,0,1-.93.41,1.37,1.37,0,0,1-1-.36,1.17,1.17,0,0,1-.4-.91V5a2.31,2.31,0,0,0-.17-.89A2.15,2.15,0,0,0,29,3.4a2.52,2.52,0,0,0-.74-.49,2.25,2.25,0,0,0-.91-.18,2.17,2.17,0,0,0-.86.17,2.43,2.43,0,0,0-.72.46,2.15,2.15,0,0,0-.49.7,2.09,2.09,0,0,0-.18.86v6.84a1.26,1.26,0,0,1-.41.93,1.31,1.31,0,0,1-.94.4,1.37,1.37,0,0,1-.94-.37,1.17,1.17,0,0,1-.41-.9V5a5.18,5.18,0,0,1,.4-1.92,4.89,4.89,0,0,1,4.57-3Z"/><path class="cls-1" d="M38.54,13.08a5.15,5.15,0,0,1-1.92-.36,4.85,4.85,0,0,1-1.58-1A5,5,0,0,1,34,10.19a4.45,4.45,0,0,1-.41-1.9V5a4.92,4.92,0,0,1,3-4.56,5.25,5.25,0,0,1,3.89,0,4.85,4.85,0,0,1,1.58,1,5,5,0,0,1,1.08,1.52,4.47,4.47,0,0,1,.41,1.9V8.13a4.91,4.91,0,0,1-.38,1.92,5,5,0,0,1-1,1.58,4.88,4.88,0,0,1-3.53,1.45ZM40.84,5a2.31,2.31,0,0,0-.17-.89,2.14,2.14,0,0,0-.49-.73,2.48,2.48,0,0,0-.74-.49,2.23,2.23,0,0,0-.91-.18,2.28,2.28,0,0,0-.9.17,2.42,2.42,0,0,0-.72.46,2.14,2.14,0,0,0-.49.7,2.09,2.09,0,0,0-.18.86V8.13a2.06,2.06,0,0,0,.15.89,2.13,2.13,0,0,0,.49.73,2.47,2.47,0,0,0,.74.49,2.34,2.34,0,0,0,1,.18,2.17,2.17,0,0,0,.86-.17,2.43,2.43,0,0,0,.72-.46,2.12,2.12,0,0,0,.49-.7,2.07,2.07,0,0,0,.18-.86Z"/></g></g></svg>